<?xml version="1.0" standalone="no"?>
<!DOCTYPE svg PUBLIC "-//W3C//DTD SVG 1.1//EN" "http://www.w3.org/Graphics/SVG/1.1/DTD/svg11.dtd">
<svg width="100px" height="100px" version="1.1" xmlns="http://www.w3.org/2000/svg" xmlns:xlink="http://www.w3.org/1999/xlink" xml:space="preserve" style="fill-rule:evenodd;clip-rule:evenodd;stroke-linejoin:round;stroke-miterlimit:1.41421;">
    <g>
        <g id="Capa_1">
            <path d="M45.0994,74.7177L9.65591,39.2207C8.27664,37.9136 7.587,36.2811 7.587,34.3205C7.587,32.3598 8.27731,30.7273 9.65591,29.4202L13.7396,25.2823C15.0828,23.9391 16.7153,23.2676 18.6392,23.2676C20.5264,23.2676 22.1783,23.9391 23.5937,25.2823L49.9997,51.7425L76.4598,25.2817C77.803,23.9385 79.4362,23.2669 81.3608,23.2669C83.2472,23.2669 84.8992,23.9385 86.3152,25.2817L90.3975,29.4195C91.7407,30.7627 92.413,32.3966 92.413,34.3198C92.413,36.2437 91.7407,37.8776 90.3975,39.2201L54.9541,74.7177C53.5387,76.0609 51.8868,76.7331 49.9997,76.7331C48.0758,76.7331 46.4426,76.0609 45.0994,74.7177Z" style="fill:black;fill-rule:nonzero;"/>
        </g>
    </g>
</svg>
