<?xml version="1.0" encoding="utf-8"?>
<!-- Generator: Adobe Illustrator 19.0.1, SVG Export Plug-In . SVG Version: 6.00 Build 0)  -->
<!DOCTYPE svg PUBLIC "-//W3C//DTD SVG 1.1//EN" "http://www.w3.org/Graphics/SVG/1.1/DTD/svg11.dtd">
<svg version="1.1" id="Ebene_1" xmlns="http://www.w3.org/2000/svg" xmlns:xlink="http://www.w3.org/1999/xlink" x="0px" y="0px"
	 viewBox="0 0 100 100" style="enable-background:new 0 0 100 100;" xml:space="preserve">
<g>
	<path d="M50,0C22.4,0,0,22.4,0,50c0,27.6,22.4,50,50,50s50-22.4,50-50C100,22.4,77.6,0,50,0z M49.9,22.6c1.1-1.2,2.5-1.8,4.1-1.8
		c1.3,0,2.4,0.5,3.2,1.3c0.8,0.9,1.3,2,1.3,3.3c0,1.6-0.6,3.1-1.7,4.3c-1.2,1.3-2.5,1.9-4,1.9c-1.2,0-2.4-0.5-3.2-1.4
		c-0.8-0.9-1.3-2-1.3-3.4C48.3,25.2,48.8,23.8,49.9,22.6z M58.3,69.7c-4.1,3.9-7.1,6.3-9,7.4c-2.1,1.2-3.8,1.8-5.2,1.8
		c-1.4,0-2.6-0.5-3.5-1.4c-0.8-0.9-1.3-2.1-1.3-3.6c0-3.8,2.2-12.7,6.6-27.2c0.1-0.2,0.1-0.5,0.2-0.7c-0.2,0.1-0.4,0.2-0.6,0.3
		c-0.4,0.2-1.5,1.1-4.7,4.3c-0.5,0.5-1.3,0.5-1.8,0.1L37,49.1c-0.3-0.2-0.5-0.6-0.5-1c0-0.4,0.1-0.8,0.4-1.1c3-3.3,5.8-5.7,8.3-7.1
		c2.6-1.5,4.9-2.2,6.8-2.2c1.3,0,2.3,0.3,3,0.9c0.8,0.7,1.2,1.6,1.2,2.7c0,0.7-0.3,2.6-2.9,11.2c-3.6,12.2-4.5,16.7-4.6,18.2
		c0.7-0.4,2.3-1.6,5.8-4.8c0.5-0.5,1.4-0.5,1.9,0l1.7,1.7c0.3,0.3,0.4,0.6,0.4,1S58.5,69.4,58.3,69.7z"/>
</g>
</svg>
