<?xml version="1.0" encoding="utf-8"?><!DOCTYPE svg PUBLIC "-//W3C//DTD SVG 1.1//EN" "http://www.w3.org/Graphics/SVG/1.1/DTD/svg11.dtd"><svg xmlns="http://www.w3.org/2000/svg" xmlns:xlink="http://www.w3.org/1999/xlink"><symbol viewBox="123.307 0 595.275 595.281" id="checkmark"><path d="M367.625 470.27L228.55 330.32l67.546-67.974 73.5 73.928 198.162-199.36 65.582 65.987-265.715 267.37z"/></symbol><symbol fill-rule="evenodd" clip-rule="evenodd" stroke-linejoin="round" stroke-miterlimit="1.414" viewBox="0 0 216 146" id="chevron-double-left"><path d="M28.78 65.666L81.9 12.63c1.955-2.065 4.398-3.097 7.332-3.097 2.934.002 5.377 1.035 7.333 3.098l6.192 6.11c2.01 2.01 3.015 4.454 3.015 7.332 0 2.825-1.005 5.296-3.015 7.414L63.16 73l39.598 39.596c2.01 2.01 3.015 4.453 3.015 7.334 0 2.822-1.005 5.294-3.015 7.413l-6.192 6.11c-2.01 2.01-4.455 3.016-7.333 3.016-2.88 0-5.324-1.008-7.333-3.018L28.78 80.414c-2.01-2.118-3.016-4.59-3.016-7.415 0-2.88 1.006-5.323 3.016-7.334zM113.243 65.666l53.12-53.038c1.955-2.065 4.398-3.097 7.332-3.097 2.934.002 5.377 1.035 7.333 3.098l6.192 6.11c2.01 2.01 3.015 4.454 3.015 7.332 0 2.825-1.005 5.296-3.015 7.414L147.624 73l39.597 39.596c2.01 2.01 3.016 4.453 3.016 7.334 0 2.822-1.005 5.294-3.015 7.413l-6.19 6.11c-2.01 2.01-4.456 3.016-7.334 3.016-2.88 0-5.324-1.008-7.333-3.018l-53.12-53.038c-2.01-2.118-3.016-4.59-3.016-7.415 0-2.88 1.006-5.323 3.016-7.334z" fill-rule="nonzero"/></symbol><symbol fill-rule="evenodd" clip-rule="evenodd" stroke-linejoin="round" stroke-miterlimit="1.414" viewBox="0 0 216 146" id="chevron-double-right"><path d="M187.22 65.666L134.1 12.63c-1.955-2.065-4.398-3.097-7.332-3.097-2.934.002-5.377 1.035-7.333 3.098l-6.192 6.11c-2.01 2.01-3.015 4.454-3.015 7.332 0 2.825 1.005 5.296 3.015 7.414L152.84 73l-39.598 39.596c-2.01 2.01-3.015 4.453-3.015 7.334 0 2.822 1.005 5.294 3.015 7.413l6.192 6.11c2.01 2.01 4.455 3.016 7.333 3.016 2.88 0 5.324-1.008 7.333-3.018l53.12-53.038c2.01-2.118 3.016-4.59 3.016-7.415 0-2.88-1.006-5.323-3.016-7.334zM102.757 65.666L49.637 12.63c-1.955-2.065-4.398-3.097-7.332-3.097-2.934.002-5.377 1.035-7.333 3.098l-6.192 6.11c-2.01 2.01-3.015 4.454-3.015 7.332 0 2.825 1.005 5.296 3.015 7.414L68.376 73 28.78 112.595c-2.01 2.01-3.016 4.453-3.016 7.334 0 2.822 1.005 5.294 3.015 7.413l6.19 6.11c2.01 2.01 4.456 3.016 7.334 3.016 2.88 0 5.324-1.008 7.333-3.018l53.12-53.038c2.01-2.118 3.016-4.59 3.016-7.415 0-2.88-1.006-5.323-3.016-7.334z" fill-rule="nonzero"/></symbol><symbol fill-rule="evenodd" clip-rule="evenodd" stroke-linejoin="round" stroke-miterlimit="1.414" viewBox="0 0 100 100" id="chevron-down"><path d="M45.1 74.718L9.655 39.22c-1.38-1.306-2.07-2.94-2.07-4.9 0-1.96.69-3.593 2.07-4.9l4.084-4.138c1.343-1.343 2.975-2.014 4.9-2.014 1.886 0 3.538.67 4.954 2.014L50 51.742l26.46-26.46c1.343-1.343 2.976-2.015 4.9-2.015 1.887 0 3.54.672 4.955 2.015l4.082 4.137c1.344 1.343 2.016 2.977 2.016 4.9 0 1.924-.672 3.558-2.016 4.9L54.954 74.718C53.54 76.06 51.887 76.733 50 76.733c-1.924 0-3.557-.672-4.9-2.015z" fill-rule="nonzero"/></symbol><symbol fill-rule="evenodd" clip-rule="evenodd" stroke-linejoin="round" stroke-miterlimit="1.414" viewBox="0 0 216 146" id="chevron-left"><path d="M71.01 65.667l53.12-53.04c1.956-2.063 4.4-3.095 7.333-3.095 2.934 0 5.377 1.033 7.333 3.096l6.192 6.11c2.01 2.01 3.015 4.454 3.015 7.333 0 2.825-1.005 5.297-3.015 7.415L105.392 73l39.597 39.596c2.01 2.01 3.014 4.454 3.014 7.334 0 2.823-1.005 5.295-3.015 7.414l-6.193 6.11c-2.01 2.01-4.455 3.015-7.333 3.015-2.88 0-5.324-1.007-7.333-3.017l-53.12-53.04C69 78.297 67.996 75.824 67.996 73c0-2.88 1.006-5.323 3.016-7.333z" fill-rule="nonzero"/></symbol><symbol viewBox="0 0 216 146" id="chevron-right"><path d="M144.988 65.667l-53.12-53.04c-1.955-2.063-4.398-3.095-7.332-3.095s-5.377 1.033-7.333 3.096l-6.192 6.11c-2.01 2.01-3.014 4.454-3.014 7.333 0 2.825 1.005 5.297 3.015 7.415L110.608 73 71.01 112.596c-2.01 2.01-3.015 4.454-3.015 7.334 0 2.823 1.005 5.295 3.015 7.414l6.192 6.11c2.01 2.01 4.455 3.015 7.333 3.015 2.88 0 5.324-1.007 7.333-3.017l53.12-53.04c2.01-2.117 3.016-4.59 3.016-7.413 0-2.88-1.006-5.323-3.016-7.333z"/></symbol><symbol viewBox="0 0 100 100" id="chevron-up"><path d="M54.9 25.282L90.344 60.78c1.38 1.307 2.068 2.94 2.068 4.9 0 1.96-.69 3.593-2.068 4.9l-4.084 4.137c-1.344 1.344-2.976 2.016-4.9 2.016-1.887 0-3.538-.672-4.954-2.016L50 48.257l-26.46 26.46c-1.343 1.344-2.976 2.015-4.9 2.015-1.887 0-3.54-.67-4.955-2.015L9.603 70.58c-1.343-1.343-2.016-2.977-2.016-4.9s.673-3.558 2.016-4.9l35.443-35.498c1.415-1.343 3.067-2.015 4.955-2.015 1.924 0 3.558.672 4.9 2.015z"/></symbol><symbol fill-rule="evenodd" clip-rule="evenodd" stroke-linejoin="round" stroke-miterlimit="1.414" viewBox="0 0 100 100" id="circle-plus"><path d="M50 14.41c19.655 0 35.59 15.935 35.59 35.59S69.654 85.59 50 85.59 14.41 69.654 14.41 50 30.346 14.41 50 14.41zm-4.518 61.34V54.386H24.276v-8.93h21.206V24.25h9.036v21.206h21.207v8.93H54.518V75.75h-9.036z"/></symbol><symbol viewBox="0 0 100 100" id="info"><path d="M50 0C22.4 0 0 22.4 0 50s22.4 50 50 50 50-22.4 50-50S77.6 0 50 0zm-.1 22.6c1.1-1.2 2.5-1.8 4.1-1.8 1.3 0 2.4.5 3.2 1.3.8.9 1.3 2 1.3 3.3 0 1.6-.6 3.1-1.7 4.3-1.2 1.3-2.5 1.9-4 1.9-1.2 0-2.4-.5-3.2-1.4-.8-.9-1.3-2-1.3-3.4 0-1.6.5-3 1.6-4.2zm8.4 47.1c-4.1 3.9-7.1 6.3-9 7.4-2.1 1.2-3.8 1.8-5.2 1.8-1.4 0-2.6-.5-3.5-1.4-.8-.9-1.3-2.1-1.3-3.6 0-3.8 2.2-12.7 6.6-27.2.1-.2.1-.5.2-.7l-.6.3c-.4.2-1.5 1.1-4.7 4.3-.5.5-1.3.5-1.8.1l-2-1.6c-.3-.2-.5-.6-.5-1s.1-.8.4-1.1c3-3.3 5.8-5.7 8.3-7.1 2.6-1.5 4.9-2.2 6.8-2.2 1.3 0 2.3.3 3 .9.8.7 1.2 1.6 1.2 2.7 0 .7-.3 2.6-2.9 11.2-3.6 12.2-4.5 16.7-4.6 18.2.7-.4 2.3-1.6 5.8-4.8.5-.5 1.4-.5 1.9 0l1.7 1.7c.3.3.4.6.4 1s0 .8-.2 1.1z"/></symbol><symbol viewBox="0 0 100 100" id="mail-line"><path d="M100 13.812v72.375H0V13.812h100zM46.92 54.586c1.543 1.363 4.147 1.362 5.69-.002l38.986-34.492H7.934L46.92 54.586zm13.89-2.016L93.72 77.152v-53.7L60.81 52.57zm-3.005 2.657l-2.596 2.296c-1.503 1.33-3.473 1.995-5.444 1.995s-3.943-.666-5.443-1.994l-2.598-2.298-33.05 24.682h82.18l-33.05-24.68zM38.72 52.57L6.28 23.867V76.8l32.44-24.23z"/></symbol><symbol viewBox="0 0 100 100" id="search"><path d="M42.5 10C24.58 10 10 24.58 10 42.5S24.58 75 42.5 75c6.25 0 12.088-1.777 17.048-4.845l17.648 17.65C78.613 89.22 80.496 90 82.5 90s3.886-.78 5.303-2.196S90 84.504 90 82.5s-.78-3.887-2.197-5.303l-17.65-17.65C73.223 54.587 75 48.75 75 42.5 75 24.58 60.42 10 42.5 10zm0 55C30.094 65 20 54.907 20 42.5S30.094 20 42.5 20 65 30.093 65 42.5 54.906 65 42.5 65z"/><path d="M25 42.5h5C30 35.607 35.607 30 42.5 30v-5C32.85 25 25 32.85 25 42.5z"/></symbol></svg>