<?xml version="1.0" standalone="no"?>
<!DOCTYPE svg PUBLIC "-//W3C//DTD SVG 1.1//EN" "http://www.w3.org/Graphics/SVG/1.1/DTD/svg11.dtd">
<svg width="216px" height="146px" version="1.1" xmlns="http://www.w3.org/2000/svg" xmlns:xlink="http://www.w3.org/1999/xlink" xml:space="preserve" style="fill-rule:evenodd;clip-rule:evenodd;stroke-linejoin:round;stroke-miterlimit:1.41421;">
    <g>
        <g>
            <g id="Capa_1">
                <path d="M187.22,65.6665L134.101,12.6275C132.145,10.5635 129.702,9.5315 126.768,9.5315C123.834,9.5315 121.391,10.5645 119.435,12.6275L113.243,18.7385C111.233,20.7485 110.228,23.1915 110.228,26.0705C110.228,28.8945 111.233,31.3665 113.243,33.4845L152.839,72.9995L113.242,112.596C111.232,114.605 110.227,117.049 110.227,119.93C110.227,122.752 111.232,125.224 113.242,127.343L119.434,133.452C121.444,135.462 123.889,136.469 126.767,136.469C129.646,136.469 132.091,135.462 134.1,133.452L187.22,80.4135C189.23,78.2955 190.236,75.8235 190.236,72.9995C190.236,70.1205 189.23,67.6765 187.22,65.6665Z" style="fill:black;fill-rule:nonzero;"/>
            </g>
            <g id="Capa_11">
                <path d="M102.757,65.6665L49.6376,12.6275C47.6816,10.5635 45.2386,9.5315 42.3046,9.5315C39.3706,9.5315 36.9276,10.5645 34.9716,12.6275L28.7796,18.7385C26.7696,20.7485 25.7646,23.1915 25.7646,26.0705C25.7646,28.8945 26.7696,31.3665 28.7796,33.4845L68.3756,72.9995L28.7786,112.596C26.7686,114.605 25.7636,117.049 25.7636,119.93C25.7636,122.752 26.7686,125.224 28.7786,127.343L34.9706,133.452C36.9806,135.462 39.4256,136.469 42.3036,136.469C45.1826,136.469 47.6276,135.462 49.6366,133.452L102.757,80.4135C104.767,78.2955 105.773,75.8235 105.773,72.9995C105.773,70.1205 104.767,67.6765 102.757,65.6665Z" style="fill:black;fill-rule:nonzero;"/>
            </g>
        </g>
    </g>
</svg>
