<?xml version="1.0" encoding="utf-8"?>
<!-- Generator: Adobe Illustrator 16.0.4, SVG Export Plug-In . SVG Version: 6.00 Build 0)  -->
<!DOCTYPE svg PUBLIC "-//W3C//DTD SVG 1.1//EN" "http://www.w3.org/Graphics/SVG/1.1/DTD/svg11.dtd">
<svg version="1.1" id="Ebene_1" xmlns="http://www.w3.org/2000/svg" xmlns:xlink="http://www.w3.org/1999/xlink" x="0px" y="0px"
	 width="100px" height="100px" viewBox="0 0 100 100" enable-background="new 0 0 100 100" xml:space="preserve">
<g>
	<g id="Capa_1_1_">
		<path d="M54.9,25.282l35.444,35.498c1.379,1.307,2.068,2.939,2.068,4.9c0,1.96-0.69,3.593-2.068,4.899l-4.084,4.138
			c-1.344,1.344-2.976,2.016-4.899,2.016c-1.888,0-3.539-0.672-4.955-2.016L50,48.257l-26.46,26.46
			c-1.343,1.344-2.976,2.015-4.901,2.015c-1.886,0-3.538-0.671-4.954-2.015L9.603,70.58c-1.343-1.343-2.016-2.977-2.016-4.9
			s0.673-3.558,2.016-4.9l35.443-35.498c1.415-1.343,3.067-2.015,4.955-2.015C51.924,23.267,53.558,23.939,54.9,25.282z"/>
	</g>
</g>
</svg>
