<?xml version="1.0" standalone="no"?>
<!DOCTYPE svg PUBLIC "-//W3C//DTD SVG 1.1//EN" "http://www.w3.org/Graphics/SVG/1.1/DTD/svg11.dtd">
<svg width="216px" height="146px" version="1.1" xmlns="http://www.w3.org/2000/svg" xmlns:xlink="http://www.w3.org/1999/xlink" xml:space="preserve" style="fill-rule:evenodd;clip-rule:evenodd;stroke-linejoin:round;stroke-miterlimit:1.41421;">
    <g id="Capa_1">
        <g>
            <path d="M71.011,65.667L124.13,12.628C126.086,10.564 128.529,9.532 131.463,9.532C134.397,9.532 136.84,10.565 138.796,12.628L144.988,18.739C146.998,20.749 148.003,23.192 148.003,26.071C148.003,28.895 146.998,31.367 144.988,33.485L105.392,73L144.989,112.596C146.999,114.606 148.004,117.05 148.004,119.93C148.004,122.753 146.999,125.225 144.989,127.344L138.797,133.453C136.787,135.463 134.342,136.469 131.464,136.469C128.585,136.469 126.14,135.463 124.131,133.453L71.011,80.414C69.001,78.296 67.995,75.824 67.995,73C67.995,70.121 69.001,67.677 71.011,65.667Z" style="fill:black;fill-rule:nonzero;"/>
        </g>
    </g>
</svg>
