<?xml version="1.0" standalone="no"?>
<!DOCTYPE svg PUBLIC "-//W3C//DTD SVG 1.1//EN" "http://www.w3.org/Graphics/SVG/1.1/DTD/svg11.dtd">
<svg width="216px" height="146px" version="1.1" xmlns="http://www.w3.org/2000/svg" xmlns:xlink="http://www.w3.org/1999/xlink" xml:space="preserve" style="fill-rule:evenodd;clip-rule:evenodd;stroke-linejoin:round;stroke-miterlimit:1.41421;">
    <g>
        <g>
            <g id="Capa_1">
                <path d="M28.7796,65.6665L81.8986,12.6275C83.8546,10.5635 86.2976,9.5315 89.2316,9.5315C92.1656,9.5315 94.6086,10.5645 96.5646,12.6275L102.757,18.7385C104.767,20.7485 105.772,23.1915 105.772,26.0705C105.772,28.8945 104.767,31.3665 102.757,33.4845L63.1606,72.9995L102.758,112.596C104.768,114.605 105.773,117.049 105.773,119.93C105.773,122.752 104.768,125.224 102.758,127.343L96.5656,133.452C94.5556,135.462 92.1106,136.469 89.2326,136.469C86.3536,136.469 83.9086,135.462 81.8996,133.452L28.7796,80.4135C26.7696,78.2955 25.7636,75.8235 25.7636,72.9995C25.7636,70.1205 26.7696,67.6765 28.7796,65.6665Z" style="fill:black;fill-rule:nonzero;"/>
            </g>
            <g id="Capa_11">
                <path d="M113.243,65.6665L166.362,12.6275C168.318,10.5635 170.761,9.5315 173.695,9.5315C176.629,9.5315 179.072,10.5645 181.028,12.6275L187.22,18.7385C189.23,20.7485 190.235,23.1915 190.235,26.0705C190.235,28.8945 189.23,31.3665 187.22,33.4845L147.624,72.9995L187.221,112.596C189.231,114.605 190.236,117.049 190.236,119.93C190.236,122.752 189.231,125.224 187.221,127.343L181.029,133.452C179.019,135.462 176.574,136.469 173.696,136.469C170.817,136.469 168.372,135.462 166.363,133.452L113.243,80.4135C111.233,78.2955 110.227,75.8235 110.227,72.9995C110.227,70.1205 111.233,67.6765 113.243,65.6665Z" style="fill:black;fill-rule:nonzero;"/>
            </g>
        </g>
    </g>
</svg>
