<?xml version="1.0" encoding="utf-8"?>
<!-- Generator: Adobe Illustrator 16.0.4, SVG Export Plug-In . SVG Version: 6.00 Build 0)  -->
<!DOCTYPE svg PUBLIC "-//W3C//DTD SVG 1.1//EN" "http://www.w3.org/Graphics/SVG/1.1/DTD/svg11.dtd">
<svg version="1.1" id="Ebene_1" xmlns="http://www.w3.org/2000/svg" xmlns:xlink="http://www.w3.org/1999/xlink" x="0px" y="0px"
	 width="100px" height="100px" viewBox="0 0 100 100" enable-background="new 0 0 100 100" xml:space="preserve">
<path d="M100,13.812v72.375H0V13.812H100z M46.921,54.586c1.542,1.363,4.146,1.362,5.688-0.002l38.987-34.492H7.934L46.921,54.586
	L46.921,54.586z M60.809,52.57l32.913,24.582V23.451L60.809,52.57L60.809,52.57z M57.805,55.227l-2.596,2.296
	c-1.502,1.329-3.472,1.995-5.443,1.995s-3.943-0.666-5.443-1.994l-2.598-2.298L8.676,79.908h82.178L57.805,55.227L57.805,55.227z
	 M38.721,52.57L6.279,23.867v52.934L38.721,52.57z"/>
</svg>
