<svg xmlns="http://www.w3.org/2000/svg" version="1.2" baseProfile="tiny" viewBox="0 0 100 100"><path d="M42.5 10C24.58 10 10 24.58 10 42.5S24.58 75 42.5 75c6.25 0 12.088-1.777 17.048-4.845l17.648 17.65C78.613 89.22 80.496 90 82.5 90s3.886-.78 5.303-2.196S90 84.504 90 82.5s-.78-3.887-2.197-5.303l-17.65-17.65C73.224 54.588 75 48.75 75 42.5 75 24.58 60.42 10 42.5 10zm0 55C30.094 65 20 54.907 20 42.5S30.094 20 42.5 20 65 30.093 65 42.5 54.906 65 42.5 65z"/><path d="M25 42.5h5C30 35.607 35.607 30 42.5 30v-5C32.85 25 25 32.85 25 42.5z"/></svg>